# xmcd CD database file
#
# Track frame offsets:
#	150
#	14003
#	34840
#	49163
#
# Disc length: 839 seconds
#
# Revision: 0
# Processed by: cddbd v1.5.1PL0 Copyright (c) Steve Scherf et al.
# Submitted via: CDex 1.51
#
DISCID=2f034504
DTITLE=Miz - In The Sky
DYEAR=2005
DGENRE=Pop
TTITLE0=In The Sky
TTITLE1=What Difference
TTITLE2=In The Sky -remix-
TTITLE3=In The Sky -music track-
EXTD=YEAR: 2005
EXTT0=
EXTT1=
EXTT2=
EXTT3=
PLAYORDER=
